<svg xmlns="http://www.w3.org/2000/svg" width="1200" height="720" viewBox="0 0 1200 720" role="img" aria-labelledby="title desc">
  <title id="title">Sider recovery case</title>
  <desc id="desc">A sanitized browser plugin recovery workflow showing Sider chat detection and recovery.</desc>
  <rect width="1200" height="720" fill="#f5f6f8"/>
  <rect x="48" y="42" width="286" height="636" rx="10" fill="#ffffff" stroke="#dde2ea"/>
  <rect x="80" y="72" width="48" height="48" rx="8" fill="#17191f"/>
  <text x="104" y="104" text-anchor="middle" font-family="Inter, Arial, sans-serif" font-size="22" font-weight="800" fill="#ffffff">M</text>
  <text x="146" y="91" font-family="Inter, Arial, sans-serif" font-size="23" font-weight="800" fill="#17191f">万物 Markdown</text>
  <text x="146" y="115" font-family="Inter, Arial, sans-serif" font-size="14" fill="#667085">浏览器插件会话恢复</text>
  <rect x="80" y="156" width="222" height="42" rx="7" fill="#eef1f4" stroke="#dde2ea"/>
  <rect x="82" y="158" width="106" height="38" rx="6" fill="#ffffff"/>
  <text x="135" y="182" text-anchor="middle" font-family="Inter, Arial, sans-serif" font-size="14" font-weight="700" fill="#17191f">浏览器插件</text>
  <text x="244" y="182" text-anchor="middle" font-family="Inter, Arial, sans-serif" font-size="14" fill="#667085">导入文件</text>
  <rect x="80" y="226" width="222" height="78" rx="7" fill="#f2f7f5"/>
  <rect x="80" y="226" width="4" height="78" fill="#1f6f5b"/>
  <text x="98" y="254" font-family="Inter, Arial, sans-serif" font-size="15" font-weight="800" fill="#17191f">Sider 插件</text>
  <text x="98" y="280" font-family="Inter, Arial, sans-serif" font-size="13" fill="#667085">先在 Chrome 打开目标对话</text>
  <rect x="80" y="330" width="222" height="38" rx="7" fill="#ffffff" stroke="#dde2ea"/>
  <text x="96" y="354" font-family="Inter, Arial, sans-serif" font-size="13" fill="#17191f">Chrome Profile: Default</text>
  <rect x="80" y="386" width="222" height="44" rx="7" fill="#ffffff" stroke="#1f6f5b"/>
  <text x="191" y="414" text-anchor="middle" font-family="Inter, Arial, sans-serif" font-size="14" font-weight="800" fill="#1f6f5b">重新检测当前对话</text>
  <rect x="80" y="452" width="222" height="82" rx="7" fill="#f9fafb" stroke="#dde2ea"/>
  <text x="98" y="478" font-family="Inter, Arial, sans-serif" font-size="12" font-weight="800" fill="#1f6f5b">当前选中</text>
  <text x="98" y="505" font-family="Inter, Arial, sans-serif" font-size="14" font-weight="800" fill="#17191f">Sanitized Sider chat</text>
  <text x="98" y="526" font-family="Inter, Arial, sans-serif" font-size="12" fill="#667085">32 messages · 4 branches</text>
  <rect x="80" y="558" width="222" height="48" rx="7" fill="#1f6f5b"/>
  <text x="191" y="588" text-anchor="middle" font-family="Inter, Arial, sans-serif" font-size="15" font-weight="800" fill="#ffffff">恢复所选对话</text>
  <rect x="374" y="42" width="778" height="636" rx="10" fill="#ffffff" stroke="#dde2ea"/>
  <text x="414" y="93" font-family="Inter, Arial, sans-serif" font-size="22" font-weight="800" fill="#17191f">Recovered conversation graph</text>
  <text x="414" y="121" font-family="Inter, Arial, sans-serif" font-size="14" fill="#667085">Private text is replaced with placeholders. Structure is preserved.</text>
  <rect x="414" y="160" width="156" height="76" rx="8" fill="#f9fafb" stroke="#dde2ea"/>
  <text x="438" y="190" font-family="Inter, Arial, sans-serif" font-size="13" fill="#667085">Messages</text>
  <text x="438" y="220" font-family="Inter, Arial, sans-serif" font-size="30" font-weight="800" fill="#17191f">32</text>
  <rect x="594" y="160" width="156" height="76" rx="8" fill="#f9fafb" stroke="#dde2ea"/>
  <text x="618" y="190" font-family="Inter, Arial, sans-serif" font-size="13" fill="#667085">Branch points</text>
  <text x="618" y="220" font-family="Inter, Arial, sans-serif" font-size="30" font-weight="800" fill="#17191f">4</text>
  <rect x="774" y="160" width="156" height="76" rx="8" fill="#f9fafb" stroke="#dde2ea"/>
  <text x="798" y="190" font-family="Inter, Arial, sans-serif" font-size="13" fill="#667085">Models</text>
  <text x="798" y="220" font-family="Inter, Arial, sans-serif" font-size="30" font-weight="800" fill="#17191f">3</text>
  <rect x="414" y="280" width="698" height="78" rx="8" fill="#f5f6f8" stroke="#dde2ea"/>
  <circle cx="452" cy="319" r="12" fill="#1f6f5b"/>
  <text x="482" y="309" font-family="Inter, Arial, sans-serif" font-size="13" font-weight="800" fill="#17191f">User request</text>
  <text x="482" y="333" font-family="Inter, Arial, sans-serif" font-size="13" fill="#667085">[redacted prompt about product packaging]</text>
  <rect x="414" y="382" width="698" height="78" rx="8" fill="#f5f6f8" stroke="#dde2ea"/>
  <circle cx="452" cy="421" r="12" fill="#3857b8"/>
  <text x="482" y="411" font-family="Inter, Arial, sans-serif" font-size="13" font-weight="800" fill="#17191f">Assistant branch A</text>
  <text x="482" y="435" font-family="Inter, Arial, sans-serif" font-size="13" fill="#667085">[sanitized answer path with implementation notes]</text>
  <rect x="414" y="484" width="698" height="78" rx="8" fill="#f5f6f8" stroke="#dde2ea"/>
  <circle cx="452" cy="523" r="12" fill="#99642d"/>
  <text x="482" y="513" font-family="Inter, Arial, sans-serif" font-size="13" font-weight="800" fill="#17191f">Assistant branch B</text>
  <text x="482" y="537" font-family="Inter, Arial, sans-serif" font-size="13" fill="#667085">[alternate model answer preserved for comparison]</text>
</svg>
